# xmcd
# 
# Track frame offsets:
#     150
#     18073
#     35689
#     51053
#     74850
#     97515
#     123047
#     139666
#     149452
#     164849
#     184983
#     196412
#     220700
# 
# Disc length: 3160
# 
# Revision: 1
# Processed by: cddbd v1.5.2PL0 Copyright (c) Steve Scherf et al.
# Submitted via: fre:ac v1.0.27
# 
DISCID=bc0c560d
DTITLE=Noel Gallagher's High Flying Birds - Who Built The Moon? (Japanese Edition)
DYEAR=2017
DGENRE=Rock
TTITLE0=Fort Knox
TTITLE1=Holy Mountain
TTITLE2=Keep On Reaching
TTITLE3=It's A Beautiful World
TTITLE4=She Taught Me How To Fly
TTITLE5=Be Careful What You Wish For
TTITLE6=Black and White Sunshine
TTITLE7=Interlude (Wednesday Part 1)
TTITLE8=If Love Is The Law
TTITLE9=The Man Who Built The Moon
TTITLE10=End Credits (Wednesday Part 2)
TTITLE11=Dead In The Water (Live at RTE 2FM Studios, Dublin)
TTITLE12=God Help Us All (Japanese Bonus Track)
EXTD=
EXTT0=
EXTT1=
EXTT2=
EXTT3=
EXTT4=
EXTT5=
EXTT6=
EXTT7=
EXTT8=
EXTT9=
EXTT10=
EXTT11=
EXTT12=
PLAYORDER=
